<mxfile host="app.diagrams.net" modified="2023-10-23T18:48:53.929Z" agent="Mozilla/5.0 (Windows NT 10.0; Win64; x64) AppleWebKit/537.36 (KHTML, like Gecko) Chrome/118.0.0.0 Safari/537.36" etag="zK2_o-cx3X_9RrkYgaB7" version="22.0.6" type="google">
  <diagram name="Страница — 1" id="Iuc0BcMgtrWhIU6IL4bO">
    <mxGraphModel grid="1" page="1" gridSize="10" guides="1" tooltips="1" connect="1" arrows="1" fold="1" pageScale="1" pageWidth="827" pageHeight="1169" math="0" shadow="0">
      <root>
        <mxCell id="0" />
        <mxCell id="1" parent="0" />
        <mxCell id="6jrUPelpAg_V0vbnMmDs-3" value="" style="edgeStyle=orthogonalEdgeStyle;rounded=0;orthogonalLoop=1;jettySize=auto;html=1;" edge="1" parent="1" source="6jrUPelpAg_V0vbnMmDs-1" target="6jrUPelpAg_V0vbnMmDs-2">
          <mxGeometry relative="1" as="geometry" />
        </mxCell>
        <mxCell id="6jrUPelpAg_V0vbnMmDs-1" value="start" style="ellipse;whiteSpace=wrap;html=1;aspect=fixed;" vertex="1" parent="1">
          <mxGeometry x="360" y="20" width="80" height="80" as="geometry" />
        </mxCell>
        <mxCell id="6jrUPelpAg_V0vbnMmDs-5" value="" style="edgeStyle=orthogonalEdgeStyle;rounded=0;orthogonalLoop=1;jettySize=auto;html=1;" edge="1" parent="1" source="6jrUPelpAg_V0vbnMmDs-2" target="6jrUPelpAg_V0vbnMmDs-4">
          <mxGeometry relative="1" as="geometry" />
        </mxCell>
        <mxCell id="6jrUPelpAg_V0vbnMmDs-2" value="numbers = [77, 46, 11, 89, 48, 14, 67, 73, 22, 26]&lt;br&gt;sorted_size = 0&lt;br&gt;size = numbers.lenght" style="whiteSpace=wrap;html=1;" vertex="1" parent="1">
          <mxGeometry x="240" y="150" width="320" height="60" as="geometry" />
        </mxCell>
        <mxCell id="6jrUPelpAg_V0vbnMmDs-7" value="" style="edgeStyle=orthogonalEdgeStyle;rounded=0;orthogonalLoop=1;jettySize=auto;html=1;" edge="1" parent="1" source="6jrUPelpAg_V0vbnMmDs-4" target="6jrUPelpAg_V0vbnMmDs-6">
          <mxGeometry relative="1" as="geometry" />
        </mxCell>
        <mxCell id="6jrUPelpAg_V0vbnMmDs-8" value="yes" style="edgeLabel;html=1;align=center;verticalAlign=middle;resizable=0;points=[];" connectable="0" vertex="1" parent="6jrUPelpAg_V0vbnMmDs-7">
          <mxGeometry x="-0.5" y="-1" relative="1" as="geometry">
            <mxPoint as="offset" />
          </mxGeometry>
        </mxCell>
        <mxCell id="6jrUPelpAg_V0vbnMmDs-31" value="" style="edgeStyle=orthogonalEdgeStyle;rounded=0;orthogonalLoop=1;jettySize=auto;html=1;" edge="1" parent="1" source="6jrUPelpAg_V0vbnMmDs-4" target="6jrUPelpAg_V0vbnMmDs-30">
          <mxGeometry relative="1" as="geometry" />
        </mxCell>
        <mxCell id="6jrUPelpAg_V0vbnMmDs-4" value="sorted_size &amp;lt; size" style="rhombus;whiteSpace=wrap;html=1;" vertex="1" parent="1">
          <mxGeometry x="320" y="280" width="160" height="120" as="geometry" />
        </mxCell>
        <mxCell id="6jrUPelpAg_V0vbnMmDs-17" value="" style="edgeStyle=orthogonalEdgeStyle;rounded=0;orthogonalLoop=1;jettySize=auto;html=1;" edge="1" parent="1" source="6jrUPelpAg_V0vbnMmDs-6" target="6jrUPelpAg_V0vbnMmDs-16">
          <mxGeometry relative="1" as="geometry" />
        </mxCell>
        <mxCell id="6jrUPelpAg_V0vbnMmDs-6" value="index = 0" style="whiteSpace=wrap;html=1;" vertex="1" parent="1">
          <mxGeometry x="340" y="440" width="120" height="40" as="geometry" />
        </mxCell>
        <mxCell id="6jrUPelpAg_V0vbnMmDs-12" value="" style="edgeStyle=orthogonalEdgeStyle;rounded=0;orthogonalLoop=1;jettySize=auto;html=1;" edge="1" parent="1" source="6jrUPelpAg_V0vbnMmDs-9" target="6jrUPelpAg_V0vbnMmDs-11">
          <mxGeometry relative="1" as="geometry" />
        </mxCell>
        <mxCell id="6jrUPelpAg_V0vbnMmDs-15" value="yes" style="edgeLabel;html=1;align=center;verticalAlign=middle;resizable=0;points=[];" connectable="0" vertex="1" parent="6jrUPelpAg_V0vbnMmDs-12">
          <mxGeometry x="-0.1056" relative="1" as="geometry">
            <mxPoint y="1" as="offset" />
          </mxGeometry>
        </mxCell>
        <mxCell id="6jrUPelpAg_V0vbnMmDs-25" style="edgeStyle=orthogonalEdgeStyle;rounded=0;orthogonalLoop=1;jettySize=auto;html=1;entryX=0;entryY=0.5;entryDx=0;entryDy=0;" edge="1" parent="1" source="6jrUPelpAg_V0vbnMmDs-9" target="6jrUPelpAg_V0vbnMmDs-21">
          <mxGeometry relative="1" as="geometry">
            <Array as="points">
              <mxPoint x="400" y="810" />
            </Array>
          </mxGeometry>
        </mxCell>
        <mxCell id="6jrUPelpAg_V0vbnMmDs-26" value="no" style="edgeLabel;html=1;align=center;verticalAlign=middle;resizable=0;points=[];" connectable="0" vertex="1" parent="6jrUPelpAg_V0vbnMmDs-25">
          <mxGeometry x="-0.7671" y="-3" relative="1" as="geometry">
            <mxPoint y="1" as="offset" />
          </mxGeometry>
        </mxCell>
        <mxCell id="6jrUPelpAg_V0vbnMmDs-9" value="numbers[index] &amp;gt; numbers[index + 1]" style="rhombus;whiteSpace=wrap;html=1;" vertex="1" parent="1">
          <mxGeometry x="280" y="627" width="240" height="129.5" as="geometry" />
        </mxCell>
        <mxCell id="6jrUPelpAg_V0vbnMmDs-24" value="" style="edgeStyle=orthogonalEdgeStyle;rounded=0;orthogonalLoop=1;jettySize=auto;html=1;" edge="1" parent="1" source="6jrUPelpAg_V0vbnMmDs-11" target="6jrUPelpAg_V0vbnMmDs-21">
          <mxGeometry relative="1" as="geometry" />
        </mxCell>
        <mxCell id="6jrUPelpAg_V0vbnMmDs-11" value="temp = numbers[index]&lt;br&gt;numbers[index] = numbers[index + 1]&lt;br&gt;numbers[index + 1] = temp" style="whiteSpace=wrap;html=1;" vertex="1" parent="1">
          <mxGeometry x="590" y="662" width="170" height="60" as="geometry" />
        </mxCell>
        <mxCell id="6jrUPelpAg_V0vbnMmDs-18" value="" style="edgeStyle=orthogonalEdgeStyle;rounded=0;orthogonalLoop=1;jettySize=auto;html=1;" edge="1" parent="1" source="6jrUPelpAg_V0vbnMmDs-16" target="6jrUPelpAg_V0vbnMmDs-9">
          <mxGeometry relative="1" as="geometry" />
        </mxCell>
        <mxCell id="6jrUPelpAg_V0vbnMmDs-19" value="yes" style="edgeLabel;html=1;align=center;verticalAlign=middle;resizable=0;points=[];" connectable="0" vertex="1" parent="6jrUPelpAg_V0vbnMmDs-18">
          <mxGeometry x="-0.6444" y="1" relative="1" as="geometry">
            <mxPoint as="offset" />
          </mxGeometry>
        </mxCell>
        <mxCell id="6jrUPelpAg_V0vbnMmDs-22" style="edgeStyle=orthogonalEdgeStyle;rounded=0;orthogonalLoop=1;jettySize=auto;html=1;entryX=1;entryY=0.5;entryDx=0;entryDy=0;" edge="1" parent="1" source="6jrUPelpAg_V0vbnMmDs-16" target="6jrUPelpAg_V0vbnMmDs-28">
          <mxGeometry relative="1" as="geometry">
            <mxPoint x="790" y="920" as="targetPoint" />
            <Array as="points">
              <mxPoint x="800" y="545" />
              <mxPoint x="800" y="950" />
            </Array>
          </mxGeometry>
        </mxCell>
        <mxCell id="6jrUPelpAg_V0vbnMmDs-23" value="no" style="edgeLabel;html=1;align=center;verticalAlign=middle;resizable=0;points=[];" connectable="0" vertex="1" parent="6jrUPelpAg_V0vbnMmDs-22">
          <mxGeometry x="-0.6916" relative="1" as="geometry">
            <mxPoint as="offset" />
          </mxGeometry>
        </mxCell>
        <mxCell id="6jrUPelpAg_V0vbnMmDs-16" value="index &amp;lt; (size - 1 - sorted_size)" style="rhombus;whiteSpace=wrap;html=1;" vertex="1" parent="1">
          <mxGeometry x="330" y="505" width="140" height="80" as="geometry" />
        </mxCell>
        <mxCell id="6jrUPelpAg_V0vbnMmDs-27" style="edgeStyle=orthogonalEdgeStyle;rounded=0;orthogonalLoop=1;jettySize=auto;html=1;entryX=0;entryY=0.5;entryDx=0;entryDy=0;" edge="1" parent="1" source="6jrUPelpAg_V0vbnMmDs-21" target="6jrUPelpAg_V0vbnMmDs-16">
          <mxGeometry relative="1" as="geometry">
            <Array as="points">
              <mxPoint x="675" y="880" />
              <mxPoint x="230" y="880" />
              <mxPoint x="230" y="545" />
            </Array>
          </mxGeometry>
        </mxCell>
        <mxCell id="6jrUPelpAg_V0vbnMmDs-21" value="index = index + 1" style="rounded=0;whiteSpace=wrap;html=1;" vertex="1" parent="1">
          <mxGeometry x="590" y="780" width="170" height="60" as="geometry" />
        </mxCell>
        <mxCell id="6jrUPelpAg_V0vbnMmDs-29" style="edgeStyle=orthogonalEdgeStyle;rounded=0;orthogonalLoop=1;jettySize=auto;html=1;entryX=0;entryY=0.5;entryDx=0;entryDy=0;" edge="1" parent="1" source="6jrUPelpAg_V0vbnMmDs-28" target="6jrUPelpAg_V0vbnMmDs-4">
          <mxGeometry relative="1" as="geometry">
            <Array as="points">
              <mxPoint x="120" y="950" />
              <mxPoint x="120" y="340" />
            </Array>
          </mxGeometry>
        </mxCell>
        <mxCell id="6jrUPelpAg_V0vbnMmDs-28" value="sorted_size = sorted_size + 1" style="rounded=0;whiteSpace=wrap;html=1;" vertex="1" parent="1">
          <mxGeometry x="340" y="920" width="180" height="60" as="geometry" />
        </mxCell>
        <mxCell id="6jrUPelpAg_V0vbnMmDs-33" value="" style="edgeStyle=orthogonalEdgeStyle;rounded=0;orthogonalLoop=1;jettySize=auto;html=1;" edge="1" parent="1" source="6jrUPelpAg_V0vbnMmDs-30" target="6jrUPelpAg_V0vbnMmDs-32">
          <mxGeometry relative="1" as="geometry" />
        </mxCell>
        <mxCell id="6jrUPelpAg_V0vbnMmDs-30" value="numbers" style="shape=document;whiteSpace=wrap;html=1;boundedLbl=1;" vertex="1" parent="1">
          <mxGeometry x="540" y="300" width="120" height="80" as="geometry" />
        </mxCell>
        <mxCell id="6jrUPelpAg_V0vbnMmDs-32" value="end" style="ellipse;whiteSpace=wrap;html=1;" vertex="1" parent="1">
          <mxGeometry x="720" y="300" width="80" height="80" as="geometry" />
        </mxCell>
      </root>
    </mxGraphModel>
  </diagram>
</mxfile>
